<svg width="48" height="33" viewBox="0 0 48 33" fill="none" xmlns="http://www.w3.org/2000/svg">
<g clip-path="url(#clip0_82_138)">
<path d="M39.6188 17.1446C39.6188 15.8336 39.5124 14.8769 39.2821 13.8848H24.3115V19.8021H33.0989C32.9218 21.2726 31.9651 23.4872 29.8391 24.9753L29.8093 25.1734L34.5427 28.8404L34.8707 28.8731C37.8825 26.0915 39.6188 21.999 39.6188 17.1446Z" fill="#4285F4"/>
<path d="M24.3117 32.7358C28.6168 32.7358 32.2309 31.3184 34.8708 28.8736L29.8392 24.9758C28.4928 25.9148 26.6856 26.5703 24.3117 26.5703C20.0951 26.5703 16.5164 23.7889 15.2406 19.9443L15.0536 19.9602L10.1317 23.7693L10.0674 23.9482C12.6894 29.1569 18.0753 32.7358 24.3117 32.7358Z" fill="#34A853"/>
<path d="M15.2402 19.9444C14.9036 18.9523 14.7088 17.8892 14.7088 16.7908C14.7088 15.6923 14.9036 14.6294 15.2225 13.6373L15.2136 13.426L10.23 9.55566L10.067 9.63322C8.9863 11.7947 8.36621 14.2219 8.36621 16.7908C8.36621 19.3598 8.9863 21.7869 10.067 23.9483L15.2402 19.9444Z" fill="#FBBC05"/>
<path d="M24.3117 7.01108C27.3057 7.01108 29.3254 8.30439 30.477 9.38518L34.9771 4.99141C32.2133 2.4225 28.6168 0.845703 24.3117 0.845703C18.0753 0.845703 12.6894 4.42445 10.0674 9.63312L15.2229 13.6372C16.5164 9.79263 20.0951 7.01108 24.3117 7.01108Z" fill="#EB4335"/>
</g>
<defs>
<clipPath id="clip0_82_138">
<rect width="48" height="32" fill="white" transform="translate(0 0.845703)"/>
</clipPath>
</defs>
</svg>
